<svg  viewBox="0 0 24 24" fill="none" xmlns="http://www.w3.org/2000/svg">
    <path fill-rule="evenodd" clip-rule="evenodd" d="M13.4138 12L16.2428 9.17101C16.6338 8.78101 16.6338 8.14801 16.2428 7.75701C15.8518 7.36701 15.2198 7.36701 14.8288 7.75701L11.9998 10.586L9.17179 7.75701C8.78079 7.36701 8.14779 7.36701 7.75779 7.75701C7.36679 8.14801 7.36679 8.78101 7.75779 9.17101L10.5858 12L7.75779 14.829C7.36679 15.219 7.36679 15.852 7.75779 16.243C7.95279 16.438 8.20879 16.536 8.46479 16.536C8.72079 16.536 8.97679 16.438 9.17179 16.243L11.9998 13.414L14.8288 16.243C15.0238 16.438 15.2798 16.536 15.5358 16.536C15.7918 16.536 16.0478 16.438 16.2428 16.243C16.6338 15.852 16.6338 15.219 16.2428 14.829L13.4138 12Z" fill="currentColor" />
</svg>
