<svg  viewBox="0 0 24 22" fill="none" xmlns="http://www.w3.org/2000/svg">
    <path d="M3.3459 2.2646C3.20063 2.14316 3.0085 2.07704 2.80997 2.08019C2.61145 2.08333 2.42203 2.15548 2.28163 2.28144C2.14123 2.4074 2.06081 2.57734 2.05731 2.75545C2.05381 2.93356 2.1275 3.10594 2.26286 3.23626L20.6541 19.7363C20.7242 19.8038 20.8088 19.858 20.9028 19.8956C20.9968 19.9331 21.0983 19.9533 21.2012 19.955C21.3041 19.9566 21.4063 19.9396 21.5017 19.905C21.5971 19.8705 21.6838 19.819 21.7566 19.7537C21.8293 19.6884 21.8867 19.6107 21.9252 19.5251C21.9638 19.4395 21.9827 19.3478 21.9809 19.2555C21.9791 19.1631 21.9566 19.0721 21.9147 18.9878C21.8728 18.9034 21.8124 18.8275 21.7371 18.7646L3.3459 2.2646ZM22.908 11.5073C22.3572 12.99 21.438 14.341 20.2198 15.4582L17.0535 12.6174C17.3951 11.7594 17.4582 10.8319 17.2354 9.94294C17.0126 9.05398 16.5131 8.24002 15.7949 7.59573C15.0768 6.95144 14.1695 6.5033 13.1787 6.30341C12.1878 6.10353 11.1541 6.16011 10.1977 6.4666L7.66681 4.19601C9.04299 3.69326 10.5151 3.43577 12.001 3.43793C17.079 3.43793 21.3856 6.39235 22.908 10.4871C23.0306 10.8189 23.0306 11.1764 22.908 11.5073Z" fill="currentColor"/>
    <path d="M15.8315 11C15.8315 11.165 15.8189 11.3269 15.7937 11.4858L11.4574 7.59642C11.6345 7.57381 11.8154 7.5625 12 7.5625C12.5031 7.5625 13.0014 7.65141 13.4662 7.82416C13.9311 7.99691 14.3535 8.25012 14.7092 8.56932C15.065 8.88852 15.3473 9.26747 15.5398 9.68453C15.7324 10.1016 15.8315 10.5486 15.8315 11ZM12.5415 14.4036L8.20626 10.5132C8.18106 10.6721 8.16846 10.8344 8.16846 11C8.16836 11.4925 8.28624 11.9793 8.5141 12.4274C8.74197 12.8755 9.0745 13.2744 9.48918 13.5972C9.90385 13.9199 10.391 14.159 10.9176 14.2981C11.4442 14.4372 11.998 14.4732 12.5415 14.4036Z" fill="currentColor"/>
    <path d="M6.63589 11.0007C6.63589 10.4332 6.74522 9.88874 6.9465 9.38366L3.77912 6.54199C2.56131 7.65926 1.64245 9.01023 1.09196 10.4928C0.969348 10.8247 0.969348 11.1822 1.09196 11.514C2.61332 15.6087 6.91993 18.5632 11.999 18.5632C13.5316 18.5632 14.9957 18.2937 16.3332 17.8051L13.8023 15.5345C12.9928 15.7936 12.1257 15.8744 11.274 15.77C10.4224 15.6656 9.61118 15.3792 8.90872 14.9348C8.20626 14.4904 7.63313 13.901 7.23759 13.2164C6.84205 12.5317 6.63569 11.7718 6.63589 11.0007Z" fill="currentColor"/>
</svg>
