<svg  viewBox="0 0 24 24" fill="none" xmlns="http://www.w3.org/2000/svg">
    <path fill-rule="evenodd" clip-rule="evenodd" d="M7 11.9998C7 14.7568 9.243 16.9998 12 16.9998C14.757 16.9998 17 14.7568 17 11.9998C17 9.24279 14.757 6.99979 12 6.99979C9.243 6.99979 7 9.24279 7 11.9998ZM11.972 4.50879C16.755 4.50879 20.885 7.38979 22.875 11.5738C23.004 11.8468 23.004 12.1718 22.875 12.4448C20.885 16.6288 16.755 19.5088 11.972 19.5088C7.189 19.5088 3.06 16.6288 1.069 12.4458C0.938997 12.1728 0.938997 11.8458 1.069 11.5728C3.06 7.38979 7.189 4.50879 11.972 4.50879ZM9 11.9998C9 10.3458 10.346 8.99979 12 8.99979C13.654 8.99979 15 10.3458 15 11.9998C15 13.6538 13.654 14.9998 12 14.9998C10.346 14.9998 9 13.6538 9 11.9998Z" fill="currentColor" />
</svg>
