<svg  viewBox="0 0 20 20" fill="none" xmlns="http://www.w3.org/2000/svg">
    <path fill-rule="evenodd" clip-rule="evenodd" d="M10 18C5.582 18 2 14.418 2 10C2 5.582 5.582 2 10 2C14.418 2 18 5.582 18 10C18 14.418 14.418 18 10 18ZM10 0C4.486 0 0 4.486 0 10C0 15.514 4.486 20 10 20C15.514 20 20 15.514 20 10C20 4.486 15.514 0 10 0ZM10 9C9.447 9 9 9.448 9 10V14C9 14.552 9.447 15 10 15C10.553 15 11 14.552 11 14V10C11 9.448 10.553 9 10 9ZM8.7501 5.9996C8.7501 5.6696 8.8801 5.3496 9.1201 5.1196C9.5801 4.6496 10.4201 4.6496 10.8801 5.1196C11.1201 5.3496 11.2501 5.6696 11.2501 5.9996C11.2501 6.3296 11.1201 6.6496 10.8801 6.8796C10.6491 7.1196 10.3301 7.2496 10.0001 7.2496C9.6701 7.2496 9.3491 7.1196 9.1201 6.8796C8.8801 6.6496 8.7501 6.3296 8.7501 5.9996Z" fill="currentColor" />
</svg>
