<svg width="136" height="136" viewBox="0 0 136 136" fill="none" xmlns="http://www.w3.org/2000/svg">
    <path d="M59 119C91.5848 119 118 92.3609 118 59.5C118 26.6391 91.5848 0 59 0C26.4152 0 0 26.6391 0 59.5C0 92.3609 26.4152 119 59 119Z" fill="#00857C"/>
    <path opacity="0.9" d="M83.1324 84.2152L49.7271 93.6603C45.9809 94.9198 41.9224 93.9752 39.1126 91.1415L29.4345 81.3815C28.4979 80.437 29.1223 79.1776 30.0589 78.8627L60.03 70.677C60.9661 70.3621 61.5905 70.677 62.215 71.3067L72.83 82.0112C75.015 84.2152 77.5127 85.1593 80.3226 85.1593C81.2592 84.5301 82.1958 84.5301 83.1324 84.2152Z" fill="#E5E5E5"/>
    <path opacity="0.84" d="M87.8152 66.583L67.8348 46.4333L64.4005 42.9701C62.2151 40.7662 61.2785 38.2474 61.2785 35.4139C61.2785 32.5803 62.2151 30.0615 64.4005 27.8576C65.3372 26.5982 66.8982 25.6537 68.4593 25.3389L35.3662 34.1545C33.8052 34.7841 31.932 35.7287 30.3711 36.988C26.3125 41.081 26.3125 48.0075 30.3711 52.1007L50.6639 72.8801L53.786 76.0287C55.9714 78.2326 56.9075 80.751 56.9075 83.5847C56.9075 86.4184 55.9714 88.9372 53.786 91.1412C52.5371 92.4001 50.9761 93.3446 49.415 93.6595L82.8198 84.5292C84.3809 84.2144 86.2541 83.2698 87.503 81.6955C89.6884 79.4916 90.6251 76.9732 90.6251 74.1395C90.9373 71.3058 89.6884 68.4722 87.8152 66.583Z" fill="#F4F4F4"/>
    <path opacity="0.9" d="M79.0738 27.8578C76.2639 25.0242 72.2052 24.0797 68.4592 25.3391L35.3662 34.1546C36.3028 34.1546 37.2394 33.8398 37.8638 33.8398C40.6735 33.8398 43.1711 34.7843 45.3565 36.9882L56.2836 48.0077C56.908 48.6374 57.8441 48.9522 58.4685 48.6374L67.5226 46.1186L89.3762 40.4515C90.3128 40.1367 90.625 39.1921 90.0006 38.5624L79.0738 27.8578Z" fill="white"/>
    <rect x="85" y="85" width="51" height="51" rx="25.5" fill="white"/>
    <path d="M114.818 102L110.499 108.282L106.181 102H91.7998L110.499 129.2L129.199 102H114.818Z" fill="#41B883"/>
    <path d="M114.818 102L110.5 108.282L106.181 102H99.2798L110.5 118.32L121.719 102H114.818Z" fill="#34495E"/>
</svg>
