<svg width="136" height="136" viewBox="0 0 136 136" fill="none" xmlns="http://www.w3.org/2000/svg">
    <path d="M60 120C93.1371 120 120 93.1371 120 60C120 26.8629 93.1371 0 60 0C26.8629 0 0 26.8629 0 60C0 93.1371 26.8629 120 60 120Z" fill="#00857C"/>
    <path opacity="0.9" d="M84.5416 84.923L50.5701 94.4475C46.7604 95.7175 42.6331 94.765 39.7757 91.9075L29.9336 82.0655C28.9811 81.113 29.6161 79.843 30.5685 79.5255L61.0476 71.271C61.9996 70.9535 62.6346 71.271 63.2696 71.906L74.0646 82.7005C76.2866 84.923 78.8266 85.875 81.6841 85.875C82.6366 85.2405 83.5891 85.2405 84.5416 84.923Z" fill="#E5E5E5"/>
    <path opacity="0.84" d="M89.3033 67.1425L68.9843 46.8235L65.4918 43.3311C63.2693 41.1087 62.3168 38.5688 62.3168 35.7114C62.3168 32.854 63.2693 30.3141 65.4918 28.0917C66.4443 26.8217 68.0318 25.8693 69.6193 25.5518L35.9654 34.4415C34.3779 35.0764 32.473 36.0289 30.8856 37.2988C26.7582 41.4262 26.7582 48.4109 30.8856 52.5385L51.5223 73.4925L54.6973 76.6675C56.9198 78.89 57.8718 81.4295 57.8718 84.287C57.8718 87.1445 56.9198 89.6845 54.6973 91.907C53.4273 93.1765 51.8398 94.129 50.2523 94.4465L84.2233 85.2395C85.8108 84.922 87.7158 83.9695 88.9858 82.382C91.2083 80.1595 92.1608 77.62 92.1608 74.7625C92.4783 71.905 91.2083 69.0475 89.3033 67.1425Z" fill="#F4F4F4"/>
    <path opacity="0.9" d="M80.4142 28.0918C77.5567 25.2344 73.4292 24.282 69.6197 25.5519L35.9658 34.4416C36.9183 34.4416 37.8707 34.1241 38.5057 34.1241C41.3631 34.1241 43.903 35.0766 46.1254 37.299L57.2377 48.4111C57.8727 49.0461 58.8247 49.3635 59.4597 49.0461L68.6672 46.5061L90.8912 40.7914C91.8437 40.4739 92.1612 39.5214 91.5262 38.8864L80.4142 28.0918Z" fill="white"/>
    <rect x="85" y="85" width="50" height="50" rx="25" fill="white"/>
    <path d="M114.131 98.9999L110.167 105.704L106.202 98.9999H93L110.167 128.028L127.333 98.9999H114.131Z" fill="#41B883"/>
    <path d="M114.132 99L110.167 105.704L106.203 99H99.8672L110.167 116.417L120.467 99H114.132Z" fill="#34495E"/>
</svg>
